<?xml version="1.0" encoding="UTF-8" standalone="no"?>
<!DOCTYPE svg PUBLIC "-//W3C//DTD SVG 1.1//EN"
 "http://www.w3.org/Graphics/SVG/1.1/DTD/svg11.dtd">
<!-- Generated by graphviz version 2.44.1 (20200629.0846)
 -->
<!-- Pages: 1 -->
<svg width="839pt" height="530pt"
 viewBox="0.00 0.00 839.00 530.00" xmlns="http://www.w3.org/2000/svg" xmlns:xlink="http://www.w3.org/1999/xlink">
<g id="graph0" class="graph" transform="scale(1 1) rotate(0) translate(4 526)">
<polygon fill="white" stroke="transparent" points="-4,4 -4,-526 835,-526 835,4 -4,4"/>
<!-- 1 -->
<g id="node1" class="node">
<title>1</title>
<path fill="none" stroke="black" d="M42,-279C42,-279 12,-279 12,-279 6,-279 0,-273 0,-267 0,-267 0,-255 0,-255 0,-249 6,-243 12,-243 12,-243 42,-243 42,-243 48,-243 54,-249 54,-255 54,-255 54,-267 54,-267 54,-273 48,-279 42,-279"/>
<text text-anchor="start" x="11.5" y="-258.3" font-family="Times New Roman,serif" font-weight="bold" font-size="14.00">Start</text>
</g>
<!-- 2 -->
<g id="node2" class="node">
<title>2</title>
<polygon fill="#97ffff" stroke="black" points="210,-279 90,-279 90,-243 210,-243 210,-279"/>
<text text-anchor="start" x="98" y="-258.3" font-family="Times New Roman,serif" font-weight="bold" font-size="14.00">Query 1</text>
<text text-anchor="start" x="148" y="-258.3" font-family="Times New Roman,serif" font-size="14.00">: PK = &#39;*&#39;</text>
</g>
<!-- 1&#45;&gt;2 -->
<g id="edge1" class="edge">
<title>1&#45;&gt;2</title>
<path fill="none" stroke="black" d="M54.26,-261C61.83,-261 70.47,-261 79.39,-261"/>
<polygon fill="black" stroke="black" points="79.52,-264.5 89.52,-261 79.52,-257.5 79.52,-264.5"/>
</g>
<!-- 3 -->
<g id="node3" class="node">
<title>3</title>
<polygon fill="#c1ffc1" stroke="black" points="580,-522 254,-522 254,-486 580,-486 580,-522"/>
<text text-anchor="start" x="262" y="-501.3" font-family="Times New Roman,serif" font-weight="bold" font-size="14.00">Results</text>
<text text-anchor="start" x="308" y="-501.3" font-family="Times New Roman,serif" font-size="14.00">: Dashner, Cleopatra &#45; Davis, Gemma (count 2)</text>
</g>
<!-- 2&#45;&gt;3 -->
<g id="edge2" class="edge">
<title>2&#45;&gt;3</title>
<path fill="none" stroke="black" d="M153.15,-279.03C159.21,-321.19 180.47,-426.46 246,-477 247.6,-478.23 249.23,-479.42 250.89,-480.56"/>
<polygon fill="black" stroke="black" points="249.11,-483.57 259.45,-485.9 252.82,-477.64 249.11,-483.57"/>
</g>
<!-- 4 -->
<g id="node4" class="node">
<title>4</title>
<polygon fill="beige" stroke="black" points="545.5,-468 288.5,-468 288.5,-432 545.5,-432 545.5,-468"/>
<text text-anchor="start" x="296.5" y="-447.3" font-family="Times New Roman,serif" font-weight="bold" font-size="14.00">Query 2</text>
<text text-anchor="start" x="346.5" y="-447.3" font-family="Times New Roman,serif" font-size="14.00">: PK = &#39;Davis&#39; and RK &gt; &#39;Gemma&#39;</text>
</g>
<!-- 2&#45;&gt;4 -->
<g id="edge3" class="edge">
<title>2&#45;&gt;4</title>
<path fill="none" stroke="black" d="M155.99,-279.16C166.42,-313.46 194.03,-387.52 246,-423 255.93,-429.78 266.94,-435.09 278.44,-439.24"/>
<polygon fill="black" stroke="black" points="277.61,-442.65 288.21,-442.45 279.8,-436 277.61,-442.65"/>
</g>
<!-- 6 -->
<g id="node6" class="node">
<title>6</title>
<polygon fill="#97ffff" stroke="black" points="531.5,-414 302.5,-414 302.5,-378 531.5,-378 531.5,-414"/>
<text text-anchor="start" x="310.5" y="-393.3" font-family="Times New Roman,serif" font-weight="bold" font-size="14.00">Query 3</text>
<text text-anchor="start" x="360.5" y="-393.3" font-family="Times New Roman,serif" font-size="14.00">: PK = &#39;D*&#39; and PK &gt; &#39;Davis&#39;</text>
</g>
<!-- 2&#45;&gt;6 -->
<g id="edge5" class="edge">
<title>2&#45;&gt;6</title>
<path fill="none" stroke="black" d="M161.5,-279.41C176.69,-304.21 207.28,-347.68 246,-369 260.2,-376.82 276.01,-382.54 292.12,-386.69"/>
<polygon fill="black" stroke="black" points="291.64,-390.18 302.17,-389.09 293.26,-383.37 291.64,-390.18"/>
</g>
<!-- 8 -->
<g id="node8" class="node">
<title>8</title>
<polygon fill="#c1ffc1" stroke="black" points="582,-360 252,-360 252,-324 582,-324 582,-360"/>
<text text-anchor="start" x="260" y="-339.3" font-family="Times New Roman,serif" font-weight="bold" font-size="14.00">Results</text>
<text text-anchor="start" x="306" y="-339.3" font-family="Times New Roman,serif" font-size="14.00">: Hartlage, Marketta &#45; Nuckles, Timmy (count 2)</text>
</g>
<!-- 2&#45;&gt;8 -->
<g id="edge7" class="edge">
<title>2&#45;&gt;8</title>
<path fill="none" stroke="black" d="M176.8,-279.06C195.25,-291.11 221.11,-306.28 246,-315 252.54,-317.29 259.28,-319.39 266.15,-321.31"/>
<polygon fill="black" stroke="black" points="265.72,-324.82 276.28,-324 267.51,-318.05 265.72,-324.82"/>
</g>
<!-- 9 -->
<g id="node9" class="node">
<title>9</title>
<polygon fill="beige" stroke="black" points="550.5,-306 283.5,-306 283.5,-270 550.5,-270 550.5,-306"/>
<text text-anchor="start" x="291.5" y="-285.3" font-family="Times New Roman,serif" font-weight="bold" font-size="14.00">Query 4</text>
<text text-anchor="start" x="341.5" y="-285.3" font-family="Times New Roman,serif" font-size="14.00">: PK = &#39;Nuckles&#39; and RK &gt; &#39;Timmy&#39;</text>
</g>
<!-- 2&#45;&gt;9 -->
<g id="edge8" class="edge">
<title>2&#45;&gt;9</title>
<path fill="none" stroke="black" d="M210.14,-267.03C229.06,-268.95 250.89,-271.18 273.11,-273.44"/>
<polygon fill="black" stroke="black" points="273.03,-276.95 283.34,-274.48 273.74,-269.99 273.03,-276.95"/>
</g>
<!-- 10 -->
<g id="node10" class="node">
<title>10</title>
<polygon fill="#97ffff" stroke="black" points="538,-252 296,-252 296,-216 538,-216 538,-252"/>
<text text-anchor="start" x="304" y="-231.3" font-family="Times New Roman,serif" font-weight="bold" font-size="14.00">Query 5</text>
<text text-anchor="start" x="354" y="-231.3" font-family="Times New Roman,serif" font-size="14.00">: PK = &#39;N*&#39; and PK &gt; &#39;Nuckles&#39;</text>
</g>
<!-- 2&#45;&gt;10 -->
<g id="edge9" class="edge">
<title>2&#45;&gt;10</title>
<path fill="none" stroke="black" d="M210.14,-254.97C232.66,-252.68 259.31,-249.96 285.84,-247.26"/>
<polygon fill="black" stroke="black" points="286.39,-250.72 295.99,-246.23 285.69,-243.76 286.39,-250.72"/>
</g>
<!-- 11 -->
<g id="node11" class="node">
<title>11</title>
<polygon fill="#c1ffc1" stroke="black" points="564,-198 270,-198 270,-162 564,-162 564,-198"/>
<text text-anchor="start" x="278" y="-177.3" font-family="Times New Roman,serif" font-weight="bold" font-size="14.00">Results</text>
<text text-anchor="start" x="324" y="-177.3" font-family="Times New Roman,serif" font-size="14.00">: Rundle, Coleen &#45; Splawn, Lise (count 2)</text>
</g>
<!-- 2&#45;&gt;11 -->
<g id="edge10" class="edge">
<title>2&#45;&gt;11</title>
<path fill="none" stroke="black" d="M176.8,-242.94C195.25,-230.89 221.11,-215.72 246,-207 252.54,-204.71 259.28,-202.61 266.15,-200.69"/>
<polygon fill="black" stroke="black" points="267.51,-203.95 276.28,-198 265.72,-197.18 267.51,-203.95"/>
</g>
<!-- 12 -->
<g id="node12" class="node">
<title>12</title>
<polygon fill="beige" stroke="black" points="540.5,-144 293.5,-144 293.5,-108 540.5,-108 540.5,-144"/>
<text text-anchor="start" x="301.5" y="-123.3" font-family="Times New Roman,serif" font-weight="bold" font-size="14.00">Query 6</text>
<text text-anchor="start" x="351.5" y="-123.3" font-family="Times New Roman,serif" font-size="14.00">: PK = &#39;Splawn&#39; and RK &gt; &#39;Lise&#39;</text>
</g>
<!-- 2&#45;&gt;12 -->
<g id="edge11" class="edge">
<title>2&#45;&gt;12</title>
<path fill="none" stroke="black" d="M161.5,-242.59C176.69,-217.79 207.28,-174.32 246,-153 257.58,-146.62 270.23,-141.65 283.24,-137.77"/>
<polygon fill="black" stroke="black" points="284.53,-141.05 293.24,-135.02 282.67,-134.3 284.53,-141.05"/>
</g>
<!-- 13 -->
<g id="node13" class="node">
<title>13</title>
<polygon fill="#97ffff" stroke="black" points="535.5,-90 298.5,-90 298.5,-54 535.5,-54 535.5,-90"/>
<text text-anchor="start" x="306.5" y="-69.3" font-family="Times New Roman,serif" font-weight="bold" font-size="14.00">Query 7</text>
<text text-anchor="start" x="356.5" y="-69.3" font-family="Times New Roman,serif" font-size="14.00">: PK = &#39;S*&#39; and PK &gt; &#39;Splawn&#39;</text>
</g>
<!-- 2&#45;&gt;13 -->
<g id="edge12" class="edge">
<title>2&#45;&gt;13</title>
<path fill="none" stroke="black" d="M155.99,-242.84C166.42,-208.54 194.03,-134.48 246,-99 258.76,-90.29 273.29,-84 288.36,-79.5"/>
<polygon fill="black" stroke="black" points="289.6,-82.8 298.33,-76.8 287.77,-76.04 289.6,-82.8"/>
</g>
<!-- 14 -->
<g id="node14" class="node">
<title>14</title>
<polygon fill="#c1ffc1" stroke="black" points="588,-36 246,-36 246,0 588,0 588,-36"/>
<text text-anchor="start" x="254" y="-15.3" font-family="Times New Roman,serif" font-weight="bold" font-size="14.00">Results</text>
<text text-anchor="start" x="300" y="-15.3" font-family="Times New Roman,serif" font-size="14.00">: Wedell, Annabelle &#45; Wongus, Rosenda (count 2)</text>
</g>
<!-- 2&#45;&gt;14 -->
<g id="edge13" class="edge">
<title>2&#45;&gt;14</title>
<path fill="none" stroke="black" d="M153.15,-242.97C159.21,-200.81 180.47,-95.54 246,-45 247.6,-43.77 249.23,-42.58 250.89,-41.44"/>
<polygon fill="black" stroke="black" points="252.82,-44.36 259.45,-36.1 249.11,-38.43 252.82,-44.36"/>
</g>
<!-- 5 -->
<g id="node5" class="node">
<title>5</title>
<polygon fill="#c1ffc1" stroke="black" points="829.5,-468 625.5,-468 625.5,-432 829.5,-432 829.5,-468"/>
<text text-anchor="start" x="633.5" y="-447.3" font-family="Times New Roman,serif" font-weight="bold" font-size="14.00">Results</text>
<text text-anchor="start" x="679.5" y="-447.3" font-family="Times New Roman,serif" font-size="14.00">: Davis, Loralee (count 1)</text>
</g>
<!-- 4&#45;&gt;5 -->
<g id="edge4" class="edge">
<title>4&#45;&gt;5</title>
<path fill="none" stroke="black" d="M545.71,-450C568.71,-450 592.52,-450 615.01,-450"/>
<polygon fill="black" stroke="black" points="615.25,-453.5 625.25,-450 615.25,-446.5 615.25,-453.5"/>
</g>
<!-- 7 -->
<g id="node7" class="node">
<title>7</title>
<polygon fill="#c1ffc1" stroke="black" points="831,-414 624,-414 624,-378 831,-378 831,-414"/>
<text text-anchor="start" x="632" y="-393.3" font-family="Times New Roman,serif" font-weight="bold" font-size="14.00">Results</text>
<text text-anchor="start" x="678" y="-393.3" font-family="Times New Roman,serif" font-size="14.00">: Dodge, Lowell (count 1)</text>
</g>
<!-- 6&#45;&gt;7 -->
<g id="edge6" class="edge">
<title>6&#45;&gt;7</title>
<path fill="none" stroke="black" d="M531.56,-396C558.37,-396 586.95,-396 613.73,-396"/>
<polygon fill="black" stroke="black" points="613.89,-399.5 623.89,-396 613.89,-392.5 613.89,-399.5"/>
</g>
</g>
</svg>
